<svg width="103" height="23" viewBox="0 0 103 23" fill="none" xmlns="http://www.w3.org/2000/svg">
<path fill-rule="evenodd" clip-rule="evenodd" d="M5.13178 13.1603L4.1365 15.0338V21.3274H0.916504V0.836478H4.1365V9.76466L8.35178 0.836478H11.5718L7.09305 9.96957L11.5718 21.3274H8.26396L5.13178 13.1603ZM16.1174 16.6145C16.1174 17.3561 16.2686 17.8781 16.5711 18.1806C16.8736 18.4831 17.2785 18.6343 17.7859 18.6343C18.2933 18.6343 18.6982 18.4831 19.0007 18.1806C19.3032 17.8781 19.4544 17.3561 19.4544 16.6145V5.54939C19.4544 4.80781 19.3032 4.28578 19.0007 3.98329C18.6982 3.68081 18.2933 3.52957 17.7859 3.52957C17.2785 3.52957 16.8736 3.68081 16.5711 3.98329C16.2686 4.28578 16.1174 4.80781 16.1174 5.54939V16.6145ZM12.8975 5.75429C12.8975 4.0955 13.317 2.82215 14.1562 1.9342C14.9954 1.04626 16.2053 0.602295 17.786 0.602295C19.3667 0.602295 20.5767 1.04626 21.4158 1.9342C22.255 2.82215 22.6746 4.0955 22.6746 5.75429V16.4096C22.6746 18.0684 22.255 19.3417 21.4158 20.2297C20.5767 21.1176 19.3667 21.5616 17.786 21.5616C16.2053 21.5616 14.9954 21.1176 14.1562 20.2297C13.317 19.3417 12.8975 18.0684 12.8975 16.4096V5.75429ZM27.9518 6.48611V21.3274H25.0538V0.836478H29.0935L32.4013 13.1018V0.836478H35.27V21.3274H31.9622L27.9518 6.48611ZM37.5034 5.75429C37.5034 4.0955 37.8985 2.82215 38.6889 1.9342C39.4793 1.04626 40.6648 0.602295 42.2455 0.602295C43.8263 0.602295 45.0118 1.04626 45.8022 1.9342C46.5925 2.82215 46.9877 4.0955 46.9877 5.75429V6.39829H43.9434V5.54939C43.9434 4.80781 43.8019 4.28578 43.5189 3.98329C43.2359 3.68081 42.8408 3.52957 42.3334 3.52957C41.826 3.52957 41.4308 3.68081 41.1478 3.98329C40.8648 4.28578 40.7234 4.80781 40.7234 5.54939C40.7234 6.25193 40.8795 6.87153 41.1917 7.4082C41.504 7.94487 41.8943 8.45226 42.3626 8.93039C42.831 9.40851 43.3335 9.88663 43.8702 10.3647C44.4068 10.8429 44.9094 11.3649 45.3777 11.9308C45.8461 12.4968 46.2364 13.1408 46.5486 13.8628C46.8609 14.5849 47.017 15.4338 47.017 16.4096C47.017 18.0684 46.6121 19.3417 45.8022 20.2297C44.9923 21.1176 43.797 21.5616 42.2163 21.5616C40.6355 21.5616 39.4402 21.1176 38.6304 20.2297C37.8205 19.3417 37.4155 18.0684 37.4155 16.4096V15.1508H40.4599V16.6145C40.4599 17.3561 40.6111 17.8732 40.9136 18.1659C41.2161 18.4587 41.621 18.605 42.1284 18.605C42.6358 18.605 43.0408 18.4587 43.3433 18.1659C43.6458 17.8732 43.797 17.3561 43.797 16.6145C43.797 15.9119 43.6409 15.2923 43.3286 14.7557C43.0164 14.219 42.6261 13.7116 42.1577 13.2335C41.6894 12.7554 41.1868 12.2772 40.6502 11.7991C40.1135 11.321 39.611 10.799 39.1426 10.233C38.6743 9.66708 38.284 9.02309 37.9717 8.30102C37.6595 7.57896 37.5034 6.73006 37.5034 5.75429ZM48.2546 0.836478H58.2073V3.76375H54.8409V21.3274H51.6209V3.76375H48.2546V0.836478ZM66.6756 21.3274C66.6366 21.1908 66.5976 21.0639 66.5585 20.9468C66.5195 20.8298 66.4854 20.6834 66.4561 20.5078C66.4268 20.3321 66.4073 20.1077 66.3975 19.8345C66.3878 19.5613 66.3829 19.2198 66.3829 18.8099V15.5899C66.3829 14.6337 66.217 13.9604 65.8853 13.5701C65.5535 13.1798 65.0169 12.9847 64.2753 12.9847H63.1629V21.3274H59.9429V0.836478H64.8022C66.4805 0.836478 67.6953 1.22678 68.4466 2.00739C69.198 2.788 69.5736 3.96865 69.5736 5.54939V7.15939C69.5736 9.26703 68.8711 10.6526 67.466 11.3161C68.2856 11.6479 68.8467 12.1894 69.1492 12.9408C69.4517 13.6921 69.6029 14.6044 69.6029 15.6778V18.8392C69.6029 19.3466 69.6224 19.7906 69.6615 20.1711C69.7005 20.5517 69.7981 20.9371 69.9542 21.3274H66.6756ZM63.1628 3.76375V10.0574H64.4215C65.0265 10.0574 65.4998 9.90127 65.8413 9.58902C66.1828 9.27678 66.3535 8.71085 66.3535 7.89121V5.87139C66.3535 5.12981 66.2218 4.59315 65.9584 4.26139C65.6949 3.92963 65.2802 3.76375 64.7143 3.76375H63.1628ZM75.1145 0.836478V16.6438C75.1145 17.3853 75.2657 17.9025 75.5682 18.1952C75.8707 18.4879 76.2757 18.6343 76.7831 18.6343C77.2904 18.6343 77.6954 18.4879 77.9979 18.1952C78.3004 17.9025 78.4516 17.3853 78.4516 16.6438V0.836478H81.496V16.4388C81.496 18.0976 81.091 19.371 80.2811 20.2589C79.4713 21.1469 78.276 21.5908 76.6952 21.5908C75.1145 21.5908 73.9192 21.1469 73.1093 20.2589C72.2994 19.371 71.8945 18.0976 71.8945 16.4388V0.836478H75.1145ZM92.8203 0.836478H102.773V3.76375H99.4067V21.3274H96.1867V3.76375H92.8203V0.836478Z" fill="white"/>
<path fill-rule="evenodd" clip-rule="evenodd" d="M83.0255 11.4851L91.3892 1.03052V21.9396L83.0255 11.4851Z" fill="#00A4E5"/>
</svg>
